{"title":"Reika Ninomiya, Aya Morimura - School Game (Ucensored) DVDRip","uid":10824348,"size":1507289512,"categoryP":"porn","categoryS":"movie_clips","magnet":"?xt=urn:btih:6c0bef5d44b7e3ad61dd28007a43a7cce87d8261&amp;dn=Reika+Ninomiya%2C+Aya+Morimura+-+School+Game+%28Ucensored%29+DVDRip&amp;tr=udp%3A%2F%2Ftracker.openbittorrent.com%3A80&amp;tr=udp%3A%2F%2Fopen.demonii.com%3A1337&amp;tr=udp%3A%2F%2Ftracker.coppersurfer.tk%3A6969&amp;tr=udp%3A%2F%2Fexodus.desync.com%3A6969","seeders":0,"leechers":1,"uploader":"ThousandPeers","files":-1,"time":1408567646,"description":"Format                                   : MPEG-4\nFormat profile                           : Base Media\nCodec ID                                 : isom\nFile size                                : 1.40 GiB\nDuration                                 : 1h 49mn\nOverall bit rate mode                    : Variable\nOverall bit rate                         : 1 834 Kbps\nMovie name                               : Reika Ninomiya Aya Morimura\nPerformer                                : www.tokyo-hot.com\nEncoded date                             : UTC 2014-08-09 14:21:01\nTagged date                              : UTC 2014-08-09 14:21:01\nWriting application                      : Lavf51.12.1\nComment                                  : http://www.tokyo-hot.com/\n\nVideo\nID                                       : 1\nFormat                                   : MPEG-4 Visual\nFormat profile                           : Simple@L1\nFormat settings, BVOP                    : No\nFormat settings, QPel                    : No\nFormat settings, GMC                     : No warppoints\nFormat settings, Matrix                  : Default (H.263)\nCodec ID                                 : 20\nDuration                                 : 1h 49mn\nBit rate                                 : 1 699 Kbps\nWidth                                    : 720 pixels\nHeight                                   : 404 pixels\nDisplay aspect ratio                     : 16:9\nFrame rate mode                          : Constant\nFrame rate                               : 60.000 fps\nColor space                              : YUV\nChroma subsampling                       : 4:2:0\nBit depth                                : 8 bits\nScan type                                : Progressive\nCompression mode                         : Lossy\nBits/(Pixel*Frame)                       : 0.097\nStream size                              : 1.30 GiB (93%)\nWriting library                          : Lavc51.40.4\nLanguage                                 : English\nEncoded date                             : UTC 2014-08-09 14:21:01\nTagged date                              : UTC 2014-08-09 14:21:01\n\nAudio\nID                                       : 2\nFormat                                   : AAC\nFormat/Info                              : Advanced Audio Codec\nFormat profile                           : LC\nCodec ID                                 : 40\nDuration                                 : 1h 49mn\nBit rate mode                            : Variable\nBit rate                                 : 128 Kbps\nChannel(s)                               : 2 channels\nChannel positions                        : Front: L R\nSampling rate                            : 48.0 KHz\nCompression mode                         : Lossy\nStream size                              : 100 MiB (7%)","torrent":{"xt":"urn:btih:6c0bef5d44b7e3ad61dd28007a43a7cce87d8261","amp;dn":"Reika+Ninomiya%2C+Aya+Morimura+-+School+Game+%28Ucensored%29+DVDRip","amp;tr":["udp%3A%2F%2Ftracker.openbittorrent.com%3A80","udp%3A%2F%2Fopen.demonii.com%3A1337","udp%3A%2F%2Ftracker.coppersurfer.tk%3A6969","udp%3A%2F%2Fexodus.desync.com%3A6969"],"infoHash":"6c0bef5d44b7e3ad61dd28007a43a7cce87d8261","infoHashBuffer":{"type":"Buffer","data":[108,11,239,93,68,183,227,173,97,221,40,0,122,67,167,204,232,125,130,97]},"announce":[],"urlList":[]}}